<svg width="400" height="60" viewBox="0 0 400 60" fill="none" xmlns="http://www.w3.org/2000/svg">
<path d="M202.075 0V8.86677H211.755V0H202.075ZM202.075 12.669V44.339H211.755V12.669H202.075Z" fill="white"/>
<path d="M143.438 11.6527C133.379 11.6527 126.615 18.1129 126.615 28.4985C126.615 38.8841 133.384 45.3443 143.438 45.3443C153.492 45.3443 160.261 38.8841 160.261 28.4985C160.261 18.1129 153.492 11.6527 143.438 11.6527ZM143.438 37.1754C139.769 37.1754 136.418 34.9587 136.418 28.4985C136.418 22.0383 139.769 19.76 143.438 19.76C147.107 19.76 150.458 22.105 150.458 28.4985C150.458 34.892 147.107 37.1754 143.438 37.1754Z" fill="white"/>
<path d="M184.935 11.7197C179.242 11.7197 175.383 15.7118 174.307 19.5089H173.928V0H164.248V44.339H173.928L173.8 37.6273H174.179C175.065 41.2397 178.166 45.355 184.489 45.355C192.713 45.355 198.468 38.515 198.468 28.7606C198.468 19.0061 193.154 11.7249 184.93 11.7249L184.935 11.7197ZM181.076 37.2425C177.218 37.2425 173.677 34.8359 173.677 28.6271C173.677 22.4184 177.218 19.8219 181.076 19.8219C184.935 19.8219 188.542 22.2901 188.542 28.6271C188.542 34.9642 185.063 37.2425 181.076 37.2425Z" fill="white"/>
<path d="M228.337 36.3548C226.313 36.3548 225.616 35.2156 225.616 33.1888V0H216.126V34.8359C216.126 41.2346 219.416 44.339 225.806 44.339H230.172V36.3599H228.337V36.3548Z" fill="white"/>
<path d="M265.59 27.2362C265.59 16.7223 258.509 11.6527 249.27 11.6527C239.528 11.6527 232.447 17.7948 232.447 28.4985C232.447 40.2182 240.733 45.3443 248.957 45.3443C257.181 45.3443 263.946 41.732 265.211 33.9427H255.849C254.963 36.8573 252.18 37.8681 249.459 37.8681C245.79 37.8681 241.804 36.0927 241.681 30.6485H265.273C265.462 29.8275 265.59 28.7499 265.59 27.226V27.2362ZM255.849 25.0811H241.87C242.06 21.1557 245.032 18.6209 249.019 18.6209C253.005 18.6209 255.977 21.0274 255.849 25.0811Z" fill="white"/>
<path d="M285.877 37.1812C282.208 37.1812 278.857 34.9645 278.857 28.5042C278.857 22.044 282.208 19.7658 285.877 19.7658C288.849 19.7658 291.442 20.9716 292.139 25.3383H302.131C301.501 15.7737 294.794 11.6584 285.877 11.6584C275.818 11.6584 269.054 18.1186 269.054 28.5042C269.054 38.8899 275.823 45.3501 285.877 45.3501C294.794 45.3501 301.501 41.2348 302.131 31.6702H292.139C291.442 36.042 288.849 37.1812 285.877 37.1812Z" fill="white"/>
<path d="M338.221 36.6116C336.387 36.6116 335.818 35.9805 335.818 34.2666V23.6912C335.818 16.4099 331.012 11.6584 321.209 11.6584C310.837 11.6584 305.334 16.5998 305.334 23.1883H315.393C315.393 20.402 317.668 19.1346 320.896 19.1346C324.565 19.1346 326.143 21.4129 326.143 24.584V25.5948L316.781 26.2927C310.012 26.8007 305.713 29.8384 305.713 35.9189C305.713 41.4298 309.131 45.1038 315.705 45.1038C322.28 45.1038 325.508 41.4298 326.395 38.074H326.774V38.2639C326.774 42.3175 329.495 44.3444 334.742 44.3444H339.677V36.6167H338.221V36.6116ZM319.943 38.387C316.464 38.387 315.644 36.7399 315.644 35.0312C315.644 33.3225 316.653 31.9268 320.702 31.5471L326.267 31.0391C326.267 36.042 323.356 38.387 319.943 38.387Z" fill="white"/>
<path d="M361.947 12.0994C355.557 12.0994 354.169 16.7843 353.031 22.172H352.713L352.965 12.669H343.285V44.339H352.965V32.9374C352.965 22.6133 356.762 22.1053 361.947 22.1053H364.73V12.3509C363.91 12.2226 363.023 12.0994 361.947 12.0994Z" fill="white"/>
<path d="M400 27.2362C400 16.7223 392.918 11.6527 383.679 11.6527C373.938 11.6527 366.856 17.7948 366.856 28.4985C366.856 40.2182 375.142 45.3443 383.367 45.3443C391.591 45.3443 398.355 41.732 399.621 33.9427H390.259C389.372 36.8573 386.59 37.8681 383.869 37.8681C380.2 37.8681 376.213 36.0927 376.09 30.6485H399.682C399.872 29.8275 400 28.7499 400 27.226V27.2362ZM390.259 25.0811H376.28C376.469 21.1557 379.441 18.6209 383.428 18.6209C387.415 18.6209 390.387 21.0274 390.259 25.0811Z" fill="white"/>
<path d="M123.572 44.3336H115.368L114.476 32.0084L114.092 26.6924V26.5641H113.713L113.672 26.7232L113.2 28.6166L109.29 44.3285H100.487L96.5771 28.6115L96.1057 26.7232L96.0647 26.5641H95.6855V26.6873L95.3011 32.0032L94.4095 44.3285H86.2056L87.3944 29.4376L88.8138 11.6425H100.272L100.482 12.484L104.653 29.2529L104.694 29.412H105.073L105.114 29.2529L109.29 12.4533L109.49 11.6425H120.948L122.368 29.4376L123.556 44.3285L123.572 44.3336Z" fill="white"/>
<path d="M64.6788 44.3036C64.2483 44.868 63.8076 45.4222 63.3465 45.9609C63.2337 46.0944 63.121 46.2278 63.0031 46.3612C62.9006 46.4741 62.8033 46.5921 62.7008 46.705C62.3062 47.1463 61.9014 47.5824 61.4863 48.0032C61.3941 48.1007 61.3019 48.193 61.2045 48.2854C61.1123 48.3778 61.0149 48.4752 60.9227 48.5676C60.4974 48.9832 60.0669 49.3886 59.6262 49.7837C59.5135 49.8863 59.3956 49.989 59.2829 50.0865C59.1497 50.1993 59.0164 50.3174 58.8832 50.4302C58.3452 50.8869 57.7917 51.3333 57.2281 51.7644C56.7925 52.0979 56.3467 52.4212 55.8958 52.7342C55.6139 52.9292 55.3321 53.1241 55.0451 53.3089C54.7736 53.4885 54.4968 53.6681 54.215 53.8425C54.0459 53.9503 53.8717 54.058 53.6975 54.1607C53.3798 54.3556 53.0569 54.5404 52.729 54.7251C52.5394 54.8328 52.3549 54.9355 52.1653 55.0381C51.576 55.3562 50.9816 55.6641 50.3769 55.9514C50.3411 55.9668 50.3103 55.9822 50.2744 55.9976C49.6698 56.285 49.06 56.5569 48.44 56.8135C48.1837 56.9161 47.9275 57.0187 47.6713 57.1214C46.959 57.3985 46.2314 57.655 45.4986 57.8911C45.2988 57.9526 45.0989 58.0193 44.8991 58.0758C44.8376 58.0963 44.7761 58.1117 44.7146 58.1322C44.6019 58.1681 44.484 58.1989 44.3713 58.2348C43.5719 58.4657 42.7623 58.671 41.9424 58.8506C41.6247 58.9224 41.307 58.984 40.9842 59.0507C40.523 59.1379 40.0567 59.22 39.5852 59.2919C39.3136 59.3329 39.0421 59.374 38.7705 59.4099C38.2683 59.4766 37.761 59.533 37.2537 59.5844C36.6541 59.6408 36.0444 59.687 35.4346 59.7126C35.4038 59.7126 35.3782 59.7126 35.3475 59.7126C34.7428 59.7383 34.1381 59.7537 33.5283 59.7537C32.9186 59.7537 32.3088 59.7383 31.7092 59.7126C31.6785 59.7126 31.6529 59.7126 31.6221 59.7126C31.0123 59.6819 30.4077 59.6408 29.803 59.5844C29.2957 59.5382 28.7884 59.4766 28.2862 59.4099C28.0146 59.374 27.743 59.3329 27.4715 59.2919C27.0052 59.22 26.5388 59.1379 26.0725 59.0507C25.7856 58.9943 25.5037 58.9378 25.2219 58.8762C25.186 58.866 25.1502 58.8609 25.1143 58.8506C24.2944 58.671 23.4848 58.4657 22.6854 58.2348C22.5727 58.2041 22.4548 58.1681 22.3421 58.1322C22.2806 58.1117 22.2191 58.0963 22.1576 58.0758C21.9578 58.0142 21.7579 57.9526 21.5581 57.8911C20.8253 57.655 20.0976 57.3985 19.3854 57.1214C19.1292 57.0187 18.8729 56.9161 18.6167 56.8135C17.9967 56.5569 17.3818 56.285 16.7822 55.9976C16.7464 55.9822 16.7156 55.9668 16.6798 55.9514C16.0751 55.6641 15.4756 55.3562 14.8914 55.0381C14.7018 54.9355 14.5122 54.8328 14.3277 54.7251C13.9998 54.5404 13.6769 54.3505 13.3592 54.1607C12.9032 53.8887 12.4574 53.6013 12.0116 53.3089C11.7246 53.119 11.4428 52.9292 11.1609 52.7342C10.71 52.4212 10.2642 52.0928 9.82861 51.7644C9.26494 51.3333 8.71665 50.8921 8.17347 50.4302C8.04024 50.3174 7.90701 50.1993 7.77378 50.0865C7.66105 49.9838 7.54319 49.8863 7.43046 49.7837C6.98977 49.3886 6.55421 48.9832 6.13402 48.5676C6.03666 48.4752 5.94442 48.3829 5.85218 48.2854C5.75995 48.193 5.66258 48.0955 5.57035 48.0032C5.15528 47.5773 4.75046 47.1463 4.3559 46.705C4.25341 46.5921 4.15093 46.4741 4.05356 46.3612C3.93571 46.2278 3.82297 46.0944 3.71024 45.9609C3.25418 45.4222 2.80837 44.868 2.37793 44.3036L7.43558 39.239L9.9311 36.7401C10.3205 37.3097 10.7305 37.8639 11.1609 38.4026C11.2839 38.5566 11.4069 38.7105 11.535 38.8644C11.6375 38.9927 11.7451 39.1159 11.8527 39.239C12.319 39.7829 12.8058 40.3063 13.3131 40.8143C13.8204 41.3223 14.3431 41.8098 14.8863 42.2767C15.0092 42.3845 15.1374 42.4871 15.2603 42.5949C15.4141 42.7231 15.5678 42.8463 15.7215 42.9694C16.2596 43.4005 16.813 43.811 17.3818 44.2009C17.7866 44.478 18.1965 44.7448 18.6116 45.0014C18.9652 45.2169 19.3239 45.4273 19.6877 45.6274C20.3846 46.0174 21.102 46.3714 21.8348 46.705C21.9526 46.7563 22.0705 46.8076 22.1883 46.8589C22.2396 46.8794 22.2908 46.9051 22.3421 46.9256C22.4036 46.9513 22.4702 46.9769 22.5317 47.0077C22.5932 47.0334 22.6598 47.059 22.7213 47.0847C22.7879 47.1103 22.8545 47.136 22.9211 47.1617C22.9416 47.1719 22.9672 47.177 22.9877 47.1873C23.0697 47.2181 23.1517 47.254 23.2337 47.2848C23.2644 47.2951 23.2952 47.3105 23.3259 47.3207C23.3925 47.3464 23.4592 47.372 23.5258 47.3977C23.5924 47.4233 23.659 47.449 23.7256 47.4747C23.7769 47.4952 23.8281 47.5106 23.8794 47.5311C23.9408 47.5568 24.0075 47.5773 24.0689 47.5978C24.1561 47.6286 24.2483 47.6594 24.3354 47.6902C24.5199 47.7517 24.7095 47.8133 24.894 47.8749C24.9657 47.8954 25.0323 47.9211 25.1041 47.9416C25.1399 47.9519 25.1758 47.9621 25.2117 47.9724C25.2834 47.9929 25.35 48.0134 25.4218 48.034C25.4832 48.0545 25.5447 48.0699 25.6062 48.0853C25.6216 48.0853 25.6421 48.0955 25.6575 48.1007C25.719 48.1161 25.7805 48.1366 25.8471 48.152C25.9188 48.1725 25.9905 48.193 26.0623 48.2084C26.1853 48.2392 26.3031 48.2751 26.4261 48.3059C26.5183 48.3316 26.6106 48.3521 26.6977 48.3726C26.7848 48.3931 26.8822 48.4188 26.9744 48.4393C27.0359 48.4547 27.0974 48.4701 27.1589 48.4804C27.2819 48.5112 27.4048 48.5368 27.5278 48.5625C27.6354 48.5881 27.7482 48.6087 27.8558 48.6292C27.9121 48.6394 27.9685 48.6497 28.0249 48.66C28.6039 48.7729 29.1932 48.8703 29.7876 48.9473C30.2283 49.0038 30.6741 49.0499 31.1199 49.091C31.494 49.1218 31.8732 49.1474 32.2524 49.1628C32.6726 49.1834 33.0928 49.1885 33.513 49.1885C33.9383 49.1885 34.3585 49.1782 34.7735 49.1628C35.1527 49.1474 35.5268 49.1218 35.906 49.091C36.3518 49.0551 36.7976 49.0089 37.2383 48.9473C37.8327 48.8703 38.4169 48.7729 39.0011 48.66C39.0574 48.6497 39.1138 48.6394 39.1702 48.6241C39.2265 48.6138 39.2778 48.6035 39.3341 48.5881C39.3905 48.5779 39.4469 48.5676 39.5032 48.5522C39.6262 48.5266 39.7492 48.5009 39.8722 48.4701C40.1489 48.4085 40.4205 48.3418 40.6921 48.27C40.7843 48.2443 40.8765 48.2238 40.9637 48.1982C41.0456 48.1776 41.1225 48.152 41.2045 48.1315C41.5171 48.0442 41.8245 47.9519 42.132 47.8544C42.6444 47.6902 43.1517 47.5157 43.6539 47.3259C43.7103 47.3053 43.7615 47.2848 43.8179 47.2643C43.9818 47.2027 44.1458 47.136 44.3098 47.0693C44.4379 47.018 44.566 46.9615 44.689 46.9102C44.7402 46.8897 44.7915 46.864 44.8427 46.8435C44.9606 46.7922 45.0784 46.7409 45.1963 46.6896C45.9291 46.3612 46.6413 46.002 47.3382 45.6172C47.7021 45.417 48.0608 45.2067 48.4092 44.9911C48.8243 44.7346 49.2342 44.4678 49.639 44.1907C50.2078 43.8007 50.7612 43.3902 51.2993 42.9592C51.453 42.836 51.6068 42.7129 51.7605 42.5846C51.8886 42.482 52.0116 42.3742 52.1346 42.2665C52.6777 41.7995 53.2055 41.312 53.7077 40.8041C54.2099 40.2961 54.7018 39.7727 55.1681 39.2288C55.2757 39.1056 55.3782 38.9825 55.4858 38.8542C55.6139 38.7003 55.7369 38.5463 55.8599 38.3924C56.2903 37.8536 56.7003 37.2994 57.0897 36.7299L57.7251 37.3661L61.4505 41.0965L61.6401 41.2864L63.3157 42.9643L64.648 44.2984L64.6788 44.3036Z" fill="white"/>
<path d="M67.0715 20.5615L59.6208 28.0223L46.5796 14.9634L33.5383 28.0223L20.4919 14.9634L7.45068 28.0223L0 20.5615L20.4919 0.0366058L33.5383 13.0956L46.5796 0.0366058L67.0715 20.5615Z" fill="white"/>
</svg>
