<svg width="215" height="48" viewBox="0 0 215 48" fill="none" xmlns="http://www.w3.org/2000/svg">
<path d="M108.499 8V12.7608H113.696V8H108.499ZM108.499 14.8023V31.8067H113.696V14.8023H108.499Z" fill="white"/>
<path d="M77.0151 14.2566C71.6142 14.2566 67.9824 17.7252 67.9824 23.3015C67.9824 28.8778 71.617 32.3465 77.0151 32.3465C82.4132 32.3465 86.0478 28.8778 86.0478 23.3015C86.0478 17.7252 82.4132 14.2566 77.0151 14.2566ZM77.0151 27.9604C75.0451 27.9604 73.2457 26.7702 73.2457 23.3015C73.2457 19.8329 75.0451 18.6096 77.0151 18.6096C78.9851 18.6096 80.7844 19.8687 80.7844 23.3015C80.7844 26.7344 78.9851 27.9604 77.0151 27.9604Z" fill="white"/>
<path d="M99.2957 14.2926C96.2389 14.2926 94.1672 16.4361 93.5894 18.4748H93.3858V8H88.1885V31.8067H93.3858L93.317 28.203H93.5206C93.9966 30.1426 95.6611 32.3522 99.0563 32.3522C103.472 32.3522 106.562 28.6797 106.562 23.4423C106.562 18.2048 103.709 14.2954 99.2929 14.2954L99.2957 14.2926ZM97.2239 27.9964C95.1521 27.9964 93.251 26.7043 93.251 23.3706C93.251 20.037 95.1521 18.6429 97.2239 18.6429C99.2957 18.6429 101.233 19.9681 101.233 23.3706C101.233 26.7732 99.3644 27.9964 97.2239 27.9964Z" fill="white"/>
<path d="M122.599 27.5198C121.513 27.5198 121.138 26.9081 121.138 25.8199V8H116.043V26.7043C116.043 30.1399 117.809 31.8067 121.24 31.8067H123.584V27.5225H122.599V27.5198Z" fill="white"/>
<path d="M142.602 22.6238C142.602 16.9786 138.8 14.2566 133.839 14.2566C128.609 14.2566 124.807 17.5544 124.807 23.3015C124.807 29.5942 129.256 32.3465 133.671 32.3465C138.087 32.3465 141.719 30.4069 142.399 26.2247H137.372C136.896 27.7896 135.402 28.3323 133.941 28.3323C131.971 28.3323 129.831 27.3791 129.765 24.4559H142.432C142.534 24.0151 142.602 23.4365 142.602 22.6183V22.6238ZM137.372 21.4666H129.866C129.968 19.359 131.564 17.998 133.704 17.998C135.845 17.998 137.441 19.2901 137.372 21.4666Z" fill="white"/>
<path d="M153.495 27.9634C151.525 27.9634 149.725 26.7732 149.725 23.3046C149.725 19.8359 151.525 18.6127 153.495 18.6127C155.09 18.6127 156.482 19.2601 156.857 21.6047H162.222C161.883 16.4692 158.282 14.2596 153.495 14.2596C148.094 14.2596 144.462 17.7283 144.462 23.3046C144.462 28.8809 148.096 32.3495 153.495 32.3495C158.282 32.3495 161.883 30.14 162.222 25.0045H156.857C156.482 27.3518 155.09 27.9634 153.495 27.9634Z" fill="white"/>
<path d="M181.6 27.6576C180.615 27.6576 180.309 27.3187 180.309 26.3985V20.7203C180.309 16.8109 177.728 14.2596 172.465 14.2596C166.896 14.2596 163.941 16.9128 163.941 20.4503H169.342C169.342 18.9543 170.564 18.2738 172.297 18.2738C174.267 18.2738 175.115 19.4971 175.115 21.1997V21.7425L170.088 22.1171C166.453 22.3899 164.145 24.0209 164.145 27.2857C164.145 30.2446 165.98 32.2173 169.51 32.2173C173.04 32.2173 174.773 30.2446 175.249 28.4428H175.453V28.5448C175.453 30.7213 176.914 31.8095 179.731 31.8095H182.381V27.6604H181.6V27.6576ZM171.785 28.6109C169.917 28.6109 169.477 27.7265 169.477 26.8091C169.477 25.8916 170.019 25.1422 172.193 24.9384L175.181 24.6656C175.181 27.3518 173.618 28.6109 171.785 28.6109Z" fill="white"/>
<path d="M194.339 14.4966C190.908 14.4966 190.162 17.012 189.551 19.9048H189.381L189.516 14.8024H184.318V31.8068H189.516V25.685C189.516 20.1418 191.554 19.869 194.339 19.869H195.833V14.6316C195.393 14.5627 194.917 14.4966 194.339 14.4966Z" fill="white"/>
<path d="M214.77 22.6238C214.77 16.9786 210.968 14.2566 206.007 14.2566C200.777 14.2566 196.975 17.5544 196.975 23.3015C196.975 29.5942 201.424 32.3465 205.839 32.3465C210.255 32.3465 213.887 30.4069 214.567 26.2247H209.54C209.064 27.7896 207.57 28.3323 206.109 28.3323C204.139 28.3323 201.999 27.3791 201.933 24.4559H214.6C214.702 24.0151 214.77 23.4365 214.77 22.6183V22.6238ZM209.54 21.4666H202.034C202.136 19.359 203.732 17.998 205.872 17.998C208.013 17.998 209.609 19.2901 209.54 21.4666Z" fill="white"/>
<path d="M66.3488 31.8037H61.9439L61.4651 25.186L61.2588 22.3318V22.2629H61.0552L61.0332 22.3483L60.78 23.3649L58.6808 31.801H53.954L51.8547 23.3622L51.6016 22.3483L51.5795 22.2629H51.3759V22.329L51.1696 25.1833L50.6909 31.801H46.2859L46.9243 23.8057L47.6864 14.2511H53.8384L53.9512 14.7029L56.1908 23.7065L56.2128 23.792H56.4164L56.4384 23.7065L58.6808 14.6864L58.7881 14.2511H64.9401L65.7022 23.8057L66.3405 31.801L66.3488 31.8037Z" fill="white"/>
<path d="M34.7272 31.7877C34.4961 32.0908 34.2595 32.3883 34.0119 32.6776C33.9513 32.7492 33.8908 32.8209 33.8275 32.8925C33.7725 32.9531 33.7202 33.0165 33.6652 33.0771C33.4534 33.314 33.236 33.5482 33.0131 33.7741C32.9636 33.8265 32.9141 33.876 32.8618 33.9256C32.8123 33.9752 32.76 34.0276 32.7105 34.0772C32.4821 34.3003 32.251 34.518 32.0144 34.7301C31.9539 34.7852 31.8906 34.8403 31.8301 34.8927C31.7585 34.9533 31.687 35.0167 31.6155 35.0773C31.3266 35.3225 31.0294 35.5622 30.7268 35.7936C30.4929 35.9727 30.2535 36.1462 30.0114 36.3143C29.8601 36.419 29.7088 36.5237 29.5547 36.6229C29.4089 36.7193 29.2603 36.8157 29.109 36.9094C29.0182 36.9673 28.9246 37.0251 28.8311 37.0802C28.6605 37.1849 28.4872 37.2841 28.3111 37.3833C28.2093 37.4411 28.1102 37.4962 28.0084 37.5513C27.692 37.7221 27.3729 37.8875 27.0482 38.0417C27.029 38.05 27.0125 38.0583 26.9932 38.0665C26.6685 38.2208 26.3411 38.3668 26.0082 38.5046C25.8706 38.5597 25.7331 38.6148 25.5955 38.6699C25.2131 38.8187 24.8224 38.9564 24.4289 39.0832C24.3216 39.1162 24.2143 39.152 24.107 39.1823C24.074 39.1934 24.041 39.2016 24.008 39.2127C23.9475 39.2319 23.8842 39.2485 23.8236 39.2678C23.3944 39.3917 22.9597 39.5019 22.5195 39.5984C22.3489 39.6369 22.1783 39.67 22.005 39.7058C21.7574 39.7526 21.507 39.7967 21.2539 39.8353C21.1081 39.8573 20.9622 39.8794 20.8164 39.8987C20.5468 39.9345 20.2744 39.9648 20.002 39.9923C19.6801 40.0226 19.3527 40.0474 19.0253 40.0612C19.0088 40.0612 18.995 40.0612 18.9785 40.0612C18.6539 40.075 18.3292 40.0833 18.0018 40.0833C17.6744 40.0833 17.347 40.075 17.0251 40.0612C17.0086 40.0612 16.9948 40.0612 16.9783 40.0612C16.6509 40.0447 16.3262 40.0226 16.0016 39.9923C15.7292 39.9675 15.4568 39.9345 15.1872 39.8987C15.0413 39.8794 14.8955 39.8573 14.7497 39.8353C14.4993 39.7967 14.249 39.7526 13.9986 39.7058C13.8445 39.6755 13.6932 39.6452 13.5419 39.6121C13.5226 39.6066 13.5033 39.6039 13.4841 39.5984C13.0439 39.5019 12.6092 39.3917 12.1799 39.2678C12.1194 39.2512 12.0561 39.2319 11.9956 39.2127C11.9626 39.2016 11.9296 39.1934 11.8966 39.1823C11.7893 39.1493 11.682 39.1162 11.5747 39.0832C11.1812 38.9564 10.7905 38.8187 10.4081 38.6699C10.2705 38.6148 10.1329 38.5597 9.99538 38.5046C9.66247 38.3668 9.33231 38.2208 9.0104 38.0665C8.99114 38.0583 8.97463 38.05 8.95537 38.0417C8.63071 37.8875 8.30881 37.7221 7.99515 37.5513C7.89335 37.4962 7.79155 37.4411 7.69251 37.3833C7.51642 37.2841 7.34308 37.1822 7.1725 37.0802C6.92763 36.9342 6.68826 36.7799 6.4489 36.6229C6.29482 36.5209 6.1435 36.419 5.99217 36.3143C5.75006 36.1462 5.51069 35.9699 5.27682 35.7936C4.97418 35.5622 4.67978 35.3252 4.38814 35.0773C4.3166 35.0167 4.24507 34.9533 4.17353 34.8927C4.113 34.8376 4.04972 34.7852 3.98919 34.7301C3.75258 34.518 3.51871 34.3003 3.2931 34.0772C3.24083 34.0276 3.1913 33.978 3.14178 33.9256C3.09226 33.876 3.03998 33.8237 2.99046 33.7741C2.7676 33.5454 2.55024 33.314 2.33839 33.0771C2.28336 33.0165 2.22833 32.9531 2.17606 32.8925C2.11278 32.8209 2.05225 32.7492 1.99172 32.6776C1.74685 32.3883 1.50748 32.0908 1.27637 31.7877L3.99195 29.0684L5.33185 27.7267C5.54095 28.0325 5.76106 28.3301 5.99217 28.6193C6.05821 28.702 6.12424 28.7847 6.19302 28.8673C6.24805 28.9362 6.30583 29.0023 6.36361 29.0684C6.61398 29.3605 6.87536 29.6415 7.14774 29.9142C7.42012 30.187 7.70076 30.4487 7.9924 30.6994C8.05843 30.7573 8.12722 30.8124 8.19325 30.8703C8.27579 30.9391 8.35833 31.0053 8.44087 31.0714C8.72976 31.3028 9.02691 31.5232 9.33231 31.7326C9.54966 31.8814 9.76977 32.0246 9.99263 32.1624C10.1825 32.2781 10.3751 32.3911 10.5704 32.4985C10.9446 32.7079 11.3298 32.898 11.7232 33.0771C11.7865 33.1046 11.8498 33.1322 11.9131 33.1597C11.9406 33.1707 11.9681 33.1845 11.9956 33.1955C12.0286 33.2093 12.0644 33.2231 12.0974 33.2396C12.1304 33.2534 12.1662 33.2672 12.1992 33.281C12.235 33.2947 12.2707 33.3085 12.3065 33.3223C12.3175 33.3278 12.3313 33.3305 12.3423 33.3361C12.3863 33.3526 12.4303 33.3719 12.4743 33.3884C12.4909 33.3939 12.5074 33.4022 12.5239 33.4077C12.5596 33.4215 12.5954 33.4352 12.6312 33.449C12.6669 33.4628 12.7027 33.4766 12.7385 33.4903C12.766 33.5014 12.7935 33.5096 12.821 33.5206C12.854 33.5344 12.8898 33.5454 12.9228 33.5565C12.9696 33.573 13.0191 33.5895 13.0659 33.6061C13.1649 33.6391 13.2667 33.6722 13.3658 33.7052C13.4043 33.7163 13.4401 33.73 13.4786 33.7411C13.4978 33.7466 13.5171 33.7521 13.5364 33.7576C13.5749 33.7686 13.6107 33.7796 13.6492 33.7906C13.6822 33.8017 13.7152 33.8099 13.7482 33.8182C13.7565 33.8182 13.7675 33.8237 13.7757 33.8265C13.8087 33.8347 13.8418 33.8457 13.8775 33.854C13.916 33.865 13.9546 33.876 13.9931 33.8843C14.0591 33.9008 14.1224 33.9201 14.1884 33.9367C14.238 33.9504 14.2875 33.9615 14.3343 33.9725C14.381 33.9835 14.4333 33.9973 14.4828 34.0083C14.5158 34.0166 14.5489 34.0248 14.5819 34.0303C14.6479 34.0469 14.7139 34.0606 14.78 34.0744C14.8378 34.0882 14.8983 34.0992 14.9561 34.1102C14.9863 34.1157 15.0166 34.1213 15.0469 34.1268C15.3578 34.1874 15.6742 34.2397 15.9933 34.281C16.2299 34.3114 16.4693 34.3361 16.7087 34.3582C16.9095 34.3747 17.1131 34.3885 17.3167 34.3968C17.5423 34.4078 17.7679 34.4105 17.9935 34.4105C18.2219 34.4105 18.4475 34.405 18.6704 34.3968C18.874 34.3885 19.0748 34.3747 19.2784 34.3582C19.5178 34.3389 19.7572 34.3141 19.9938 34.281C20.3129 34.2397 20.6266 34.1874 20.9402 34.1268C20.9705 34.1213 21.0008 34.1157 21.031 34.1075C21.0613 34.102 21.0888 34.0965 21.1191 34.0882C21.1493 34.0827 21.1796 34.0772 21.2099 34.0689C21.2759 34.0551 21.3419 34.0414 21.408 34.0248C21.5565 33.9918 21.7024 33.9559 21.8482 33.9174C21.8977 33.9036 21.9472 33.8926 21.994 33.8788C22.038 33.8678 22.0793 33.854 22.1233 33.843C22.2911 33.7962 22.4562 33.7466 22.6213 33.6942C22.8964 33.6061 23.1688 33.5124 23.4385 33.4104C23.4687 33.3994 23.4962 33.3884 23.5265 33.3774C23.6145 33.3443 23.7026 33.3085 23.7906 33.2727C23.8594 33.2451 23.9282 33.2148 23.9942 33.1873C24.0217 33.1763 24.0493 33.1625 24.0768 33.1515C24.1401 33.1239 24.2033 33.0964 24.2666 33.0688C24.6601 32.8925 25.0425 32.6996 25.4167 32.493C25.612 32.3856 25.8046 32.2726 25.9917 32.1569C26.2146 32.0191 26.4347 31.8759 26.652 31.7271C26.9574 31.5177 27.2546 31.2973 27.5435 31.0659C27.626 30.9997 27.7085 30.9336 27.7911 30.8647C27.8599 30.8096 27.9259 30.7518 27.9919 30.6939C28.2836 30.4432 28.567 30.1815 28.8366 29.9087C29.1062 29.636 29.3704 29.355 29.6207 29.0629C29.6785 28.9968 29.7335 28.9307 29.7913 28.8618C29.8601 28.7791 29.9261 28.6965 29.9922 28.6138C30.2233 28.3246 30.4434 28.027 30.6525 27.7212L30.9937 28.0628L32.9939 30.0658L33.0957 30.1677L33.9954 31.0686L34.7107 31.7849L34.7272 31.7877Z" fill="white"/>
<path d="M36.0124 19.04L32.0119 23.0459L25.0097 16.0342L18.0076 23.0459L11.0026 16.0342L4.00046 23.0459L0 19.04L11.0026 8.01965L18.0076 15.0313L25.0097 8.01965L36.0124 19.04Z" fill="white"/>
</svg>
