<svg width="370" height="32" viewBox="0 0 370 32" fill="none" xmlns="http://www.w3.org/2000/svg">
<rect x="0.5" y="0.5" width="45" height="31" rx="5.5" fill="white"/>
<rect x="0.5" y="0.5" width="45" height="31" rx="5.5" stroke="#F9F7F6"/>
<path fillRule="evenodd" clipRule="evenodd" d="M14.3336 21.1444H11.5872L9.52784 13.0565C9.43009 12.6845 9.22255 12.3556 8.91725 12.2006C8.15535 11.811 7.31579 11.501 6.3999 11.3446V11.0332H10.824C11.4346 11.0332 11.8925 11.501 11.9689 12.0442L13.0374 17.8782L15.7824 11.0332H18.4524L14.3336 21.1444ZM19.9789 21.1444H17.3852L19.5209 11.0332H22.1146L19.9789 21.1444ZM25.4702 13.8343C25.5465 13.2898 26.0044 12.9784 26.5387 12.9784C27.3783 12.9002 28.2928 13.0566 29.0561 13.4448L29.514 11.2678C28.7508 10.9564 27.9112 10.8 27.1493 10.8C24.6319 10.8 22.8002 12.2006 22.8002 14.1444C22.8002 15.6231 24.0977 16.3995 25.0136 16.8673C26.0044 17.3337 26.3861 17.6451 26.3097 18.1114C26.3097 18.811 25.5465 19.1224 24.7846 19.1224C23.8687 19.1224 22.9528 18.8892 22.1146 18.4997L21.6567 20.678C22.5725 21.0662 23.5634 21.2226 24.4793 21.2226C27.3019 21.2994 29.0561 19.9002 29.0561 17.8001C29.0561 15.1553 25.4702 15.0003 25.4702 13.8343ZM38.1332 21.1444L36.0738 11.0332H33.8618C33.4038 11.0332 32.9459 11.3446 32.7932 11.811L28.9797 21.1444H31.6497L32.1826 19.667H35.4632L35.7685 21.1444H38.1332ZM34.2434 13.7562L35.0053 17.5669H32.8696L34.2434 13.7562Z" fill="#172B85"/>
<rect x="54.5" y="0.5" width="45" height="31" rx="5.5" fill="white"/>
<rect x="54.5" y="0.5" width="45" height="31" rx="5.5" stroke="#F9F7F6"/>
<path fillRule="evenodd" clipRule="evenodd" d="M76.9053 22.4393C75.3266 23.77 73.2787 24.5733 71.0409 24.5733C66.0478 24.5733 62 20.5737 62 15.64C62 10.7063 66.0478 6.70667 71.0409 6.70667C73.2787 6.70667 75.3266 7.51 76.9053 8.84072C78.484 7.51 80.5319 6.70667 82.7697 6.70667C87.7628 6.70667 91.8106 10.7063 91.8106 15.64C91.8106 20.5737 87.7628 24.5733 82.7697 24.5733C80.5319 24.5733 78.484 23.77 76.9053 22.4393Z" fill="#ED0006"/>
<path fillRule="evenodd" clipRule="evenodd" d="M76.9053 22.4393C78.8492 20.8007 80.0818 18.3626 80.0818 15.64C80.0818 12.9174 78.8492 10.4793 76.9053 8.84072C78.484 7.50999 80.5319 6.70667 82.7697 6.70667C87.7628 6.70667 91.8106 10.7063 91.8106 15.64C91.8106 20.5737 87.7628 24.5733 82.7697 24.5733C80.5319 24.5733 78.484 23.77 76.9053 22.4393Z" fill="#F9A000"/>
<path fillRule="evenodd" clipRule="evenodd" d="M76.9053 22.4393C78.8492 20.8008 80.0818 18.3627 80.0818 15.6401C80.0818 12.9175 78.8492 10.4794 76.9053 8.84082C74.9614 10.4794 73.7288 12.9175 73.7288 15.6401C73.7288 18.3627 74.9614 20.8008 76.9053 22.4393Z" fill="#FF5E00"/>
<rect x="108.5" y="0.5" width="45" height="31" rx="3.5" fill="white"/>
<rect x="108.5" y="0.5" width="45" height="31" rx="3.5" stroke="#F9F7F6"/>
<path d="M133.677 15.6076C133.677 20.5456 129.72 24.5486 124.838 24.5486C119.957 24.5486 116 20.5456 116 15.6076C116 10.6697 119.957 6.66663 124.838 6.66663C129.72 6.66663 133.677 10.6697 133.677 15.6076Z" fill="#ED0006"/>
<path d="M145.143 15.6076C145.143 20.5456 141.186 24.5486 136.304 24.5486C131.423 24.5486 127.466 20.5456 127.466 15.6076C127.466 10.6697 131.423 6.66663 136.304 6.66663C141.186 6.66663 145.143 10.6697 145.143 15.6076Z" fill="#0099DF"/>
<path fillRule="evenodd" clipRule="evenodd" d="M130.571 8.80261C132.472 10.4426 133.677 12.8828 133.677 15.6077C133.677 18.3326 132.472 20.7728 130.571 22.4128C128.671 20.7728 127.466 18.3326 127.466 15.6077C127.466 12.8828 128.671 10.4426 130.571 8.80261Z" fill="#6C6BBD"/>
<rect x="162.5" y="0.5" width="45" height="31" rx="3.5" fill="#1F72CD"/>
<rect x="162.5" y="0.5" width="45" height="31" rx="3.5" stroke="#F9F7F6"/>
<path fillRule="evenodd" clipRule="evenodd" d="M170.127 11.3334L165.886 20.9957H170.963L171.593 19.4551H173.032L173.661 20.9957H179.25V19.8199L179.748 20.9957H182.639L183.137 19.795V20.9957H194.761L196.175 19.4951L197.498 20.9957L203.468 21.0081L199.213 16.1915L203.468 11.3334H197.591L196.215 12.8062L194.933 11.3334H182.288L181.202 13.8273L180.091 11.3334H175.024V12.4692L174.46 11.3334H170.127ZM171.11 12.7054H173.585L176.398 19.2575V12.7054H179.11L181.283 17.4032L183.285 12.7054H185.983V19.6388H184.341L184.328 14.2059L181.935 19.6388H180.466L178.06 14.2059V19.6388H174.683L174.042 18.0844H170.584L169.945 19.6374H168.135L171.11 12.7054ZM194.16 12.7054H187.485V19.6347H194.056L196.175 17.3382L198.216 19.6347H200.35L197.248 16.1902L200.35 12.7054H198.309L196.201 14.9755L194.16 12.7054ZM172.314 13.8785L171.174 16.6475H173.452L172.314 13.8785ZM189.133 15.4067V14.141V14.1398H193.298L195.115 16.1639L193.218 18.1991H189.133V16.8174H192.775V15.4067H189.133Z" fill="white"/>
<rect x="216.5" y="0.5" width="45" height="31" rx="3.5" fill="white"/>
<rect x="216.5" y="0.5" width="45" height="31" rx="3.5" stroke="#F9F7F6"/>
<path fillRule="evenodd" clipRule="evenodd" d="M237.41 20.704V16.7912H239.43C240.257 16.7912 240.956 16.5139 241.525 15.967L241.662 15.8284C242.702 14.6961 242.634 12.9322 241.525 11.8847C240.971 11.3301 240.212 11.0297 239.43 11.0451H236.188V20.704H237.41ZM237.41 15.6049V12.2312H239.461C239.901 12.2312 240.319 12.4007 240.63 12.7088C241.291 13.3558 241.306 14.4341 240.668 15.1043C240.357 15.4355 239.916 15.6203 239.461 15.6049H237.41ZM247.364 14.6113C246.84 14.1261 246.126 13.8796 245.223 13.8796C244.061 13.8796 243.188 14.3109 242.611 15.1659L243.689 15.8514C244.084 15.2661 244.623 14.9734 245.306 14.9734C245.739 14.9734 246.156 15.1351 246.483 15.4278C246.802 15.7051 246.984 16.1056 246.984 16.5293V16.8143C246.513 16.5524 245.921 16.4137 245.192 16.4137C244.342 16.4137 243.659 16.614 243.15 17.0222C242.641 17.4305 242.383 17.9696 242.383 18.6552C242.368 19.2791 242.634 19.8721 243.104 20.2727C243.583 20.704 244.19 20.9197 244.904 20.9197C245.746 20.9197 246.415 20.5423 246.923 19.7874H246.976V20.704H248.146V16.6294C248.146 15.7744 247.887 15.0966 247.364 14.6113ZM244.046 19.487C243.795 19.3022 243.644 19.0018 243.644 18.6783C243.644 18.3163 243.811 18.0159 244.137 17.7771C244.471 17.5383 244.889 17.4151 245.382 17.4151C246.066 17.4074 246.597 17.5614 246.977 17.8695C246.977 18.3933 246.772 18.8477 246.37 19.2329C246.005 19.6026 245.512 19.8105 244.995 19.8105C244.654 19.8183 244.319 19.7027 244.046 19.487ZM250.772 23.6078L254.857 14.0953H253.528L251.638 18.84H251.615L249.679 14.0953H248.351L251.031 20.2804L249.512 23.6078H250.772Z" fill="#3C4043"/>
<path d="M233.19 15.9439C233.19 15.5665 233.16 15.1891 233.099 14.8193H227.944V16.9529H230.898C230.776 17.6384 230.381 18.2546 229.804 18.6398V20.0262H231.566C232.598 19.0634 233.19 17.6385 233.19 15.9439Z" fill="#4285F4"/>
<path d="M227.944 21.3665C229.417 21.3665 230.662 20.8736 231.566 20.0263L229.805 18.6398C229.311 18.9787 228.681 19.1713 227.944 19.1713C226.517 19.1713 225.31 18.1931 224.877 16.8837H223.063V18.3163C223.989 20.188 225.879 21.3665 227.944 21.3665Z" fill="#34A853"/>
<path d="M224.877 16.8836C224.65 16.1981 224.65 15.4509 224.877 14.7577V13.3328H223.063C222.281 14.8964 222.281 16.745 223.063 18.3086L224.877 16.8836Z" fill="#FBBC04"/>
<path d="M227.944 12.4701C228.726 12.4547 229.478 12.7551 230.04 13.302L231.604 11.7152C230.609 10.7755 229.303 10.2595 227.944 10.2749C225.879 10.2749 223.989 11.4611 223.063 13.3328L224.877 14.7654C225.31 13.4483 226.517 12.4701 227.944 12.4701Z" fill="#EA4335"/>
<rect x="270.5" y="0.5" width="45" height="31" rx="5.5" fill="white"/>
<rect x="270.5" y="0.5" width="45" height="31" rx="5.5" stroke="#F9F7F6"/>
<path fillRule="evenodd" clipRule="evenodd" d="M282.697 11.1243C282.31 11.5934 281.691 11.9635 281.072 11.9107C280.995 11.2762 281.298 10.6022 281.652 10.1859C282.039 9.70344 282.716 9.35981 283.264 9.33337C283.328 9.99421 283.077 10.6418 282.697 11.1243ZM283.257 12.0362C282.712 12.004 282.215 12.2043 281.813 12.366C281.554 12.4701 281.335 12.5583 281.169 12.5583C280.982 12.5583 280.754 12.4654 280.498 12.3612C280.162 12.2245 279.779 12.0684 279.377 12.0759C278.455 12.0891 277.598 12.6244 277.127 13.4768C276.16 15.1818 276.876 17.7062 277.81 19.094C278.268 19.7812 278.816 20.5346 279.538 20.5082C279.856 20.4959 280.084 20.3965 280.32 20.2936C280.593 20.1752 280.875 20.0522 281.317 20.0522C281.743 20.0522 282.014 20.172 282.273 20.287C282.52 20.3964 282.757 20.5014 283.109 20.495C283.857 20.4817 284.327 19.8077 284.785 19.1204C285.279 18.3828 285.496 17.6629 285.529 17.5536L285.533 17.541C285.532 17.5402 285.526 17.5373 285.515 17.5323L285.515 17.5323C285.35 17.4548 284.088 16.8625 284.076 15.2743C284.064 13.9413 285.077 13.2658 285.236 13.1595L285.236 13.1595C285.246 13.153 285.253 13.1487 285.256 13.1464C284.611 12.1684 283.605 12.0626 283.257 12.0362ZM288.433 20.4223V10.1198H292.204C294.151 10.1198 295.511 11.4943 295.511 13.5033C295.511 15.5122 294.125 16.9 292.153 16.9H289.993V20.4223H288.433ZM289.993 11.4679H291.792C293.145 11.4679 293.919 12.208 293.919 13.5099C293.919 14.8117 293.145 15.5585 291.785 15.5585H289.993V11.4679ZM300.662 19.1865C300.249 19.9927 299.34 20.5016 298.36 20.5016C296.91 20.5016 295.898 19.616 295.898 18.2811C295.898 16.9595 296.878 16.1995 298.689 16.0872L300.636 15.9682V15.3999C300.636 14.5606 300.101 14.1046 299.147 14.1046C298.36 14.1046 297.787 14.521 297.671 15.1554H296.265C296.311 13.8205 297.535 12.849 299.192 12.849C300.978 12.849 302.138 13.8073 302.138 15.2942V20.4223H300.694V19.1865H300.662ZM298.779 19.279C297.948 19.279 297.419 18.8693 297.419 18.2415C297.419 17.5939 297.928 17.2172 298.902 17.1577L300.636 17.0454V17.6269C300.636 18.5917 299.836 19.279 298.779 19.279ZM306.927 20.8254C306.302 22.6295 305.586 23.2242 304.065 23.2242C303.949 23.2242 303.562 23.211 303.472 23.1846V21.9488C303.569 21.962 303.807 21.9753 303.93 21.9753C304.619 21.9753 305.006 21.6779 305.245 20.9047L305.387 20.4487L302.744 12.9482H304.375L306.212 19.0345H306.244L308.081 12.9482H309.667L306.927 20.8254Z" fill="black"/>
<rect x="324.5" y="0.5" width="45" height="31" rx="3.5" fill="white"/>
<rect x="324.5" y="0.5" width="45" height="31" rx="3.5" stroke="#F9F7F6"/>
<path fillRule="evenodd" clipRule="evenodd" d="M343.486 24.5976L343.78 22.6655L343.124 22.6497H339.994L342.17 8.39152C342.176 8.34834 342.198 8.30826 342.23 8.27975C342.262 8.25124 342.303 8.2356 342.346 8.2356H347.625C349.377 8.2356 350.587 8.61244 351.218 9.35637C351.514 9.70535 351.703 10.0701 351.794 10.4714C351.89 10.8926 351.891 11.3957 351.798 12.0095L351.791 12.0541V12.4474L352.087 12.6208C352.336 12.7575 352.535 12.9139 352.686 13.0929C352.94 13.3914 353.103 13.7707 353.173 14.2202C353.244 14.6826 353.221 15.233 353.103 15.856C352.968 16.5725 352.75 17.1967 352.455 17.7073C352.184 18.1778 351.838 18.5682 351.428 18.8706C351.036 19.158 350.571 19.3762 350.045 19.5158C349.535 19.653 348.954 19.7222 348.316 19.7222H347.905C347.611 19.7222 347.326 19.8315 347.102 20.0275C346.878 20.2276 346.729 20.501 346.684 20.8L346.652 20.974L346.132 24.3796L346.109 24.5046C346.103 24.5442 346.092 24.5639 346.076 24.5773C346.062 24.5895 346.042 24.5976 346.022 24.5976H343.486Z" fill="#28356A"/>
<path fillRule="evenodd" clipRule="evenodd" d="M352.368 12.0996C352.352 12.2037 352.334 12.3101 352.314 12.4194C351.618 16.1136 349.236 17.3898 346.194 17.3898H344.645C344.273 17.3898 343.96 17.6689 343.902 18.0482L342.885 24.7192C342.847 24.9683 343.033 25.1927 343.276 25.1927H346.023C346.348 25.1927 346.624 24.9485 346.675 24.6169L346.702 24.4727L347.219 21.0804L347.253 20.8944C347.303 20.5617 347.58 20.3173 347.905 20.3173H348.316C350.978 20.3173 353.061 19.2006 353.67 15.9688C353.924 14.6188 353.793 13.4915 353.119 12.6987C352.916 12.4597 352.663 12.2612 352.368 12.0996Z" fill="#298FC2"/>
<path fillRule="evenodd" clipRule="evenodd" d="M351.639 11.7995C351.533 11.7674 351.423 11.7384 351.31 11.7122C351.197 11.6866 351.081 11.6639 350.962 11.6441C350.544 11.5743 350.087 11.5413 349.597 11.5413H345.459C345.357 11.5413 345.261 11.565 345.174 11.6081C344.983 11.7029 344.841 11.8896 344.807 12.1182L343.927 17.8802L343.902 18.0482C343.959 17.6689 344.273 17.3898 344.645 17.3898H346.194C349.235 17.3898 351.617 16.113 352.313 12.4194C352.334 12.3101 352.352 12.2037 352.367 12.0996C352.191 12.003 352 11.9204 351.795 11.85C351.744 11.8326 351.692 11.8158 351.639 11.7995Z" fill="#22284F"/>
<path fillRule="evenodd" clipRule="evenodd" d="M344.807 12.1182C344.842 11.8896 344.983 11.7029 345.174 11.6087C345.261 11.5656 345.358 11.5418 345.46 11.5418H349.597C350.087 11.5418 350.545 11.575 350.962 11.6447C351.082 11.6645 351.197 11.6873 351.311 11.7128C351.423 11.7389 351.533 11.7681 351.639 11.8C351.692 11.8163 351.744 11.8332 351.796 11.85C352.001 11.9204 352.192 12.0037 352.368 12.0996C352.575 10.7345 352.366 9.80498 351.652 8.9633C350.865 8.03658 349.444 7.64001 347.626 7.64001H342.347C341.975 7.64001 341.659 7.91911 341.601 8.29905L339.403 22.7038C339.359 22.9888 339.572 23.2459 339.85 23.2459H343.109L344.807 12.1182Z" fill="#28356A"/>
</svg>
